<?xml version="1.0" encoding="UTF-8" standalone="no"?>
<!-- Created with Inkscape (http://www.inkscape.org/) -->

<svg
   xmlns:dc="http://purl.org/dc/elements/1.1/"
   xmlns:cc="http://creativecommons.org/ns#"
   xmlns:rdf="http://www.w3.org/1999/02/22-rdf-syntax-ns#"
   xmlns:svg="http://www.w3.org/2000/svg"
   xmlns="http://www.w3.org/2000/svg"
   xmlns:sodipodi="http://sodipodi.sourceforge.net/DTD/sodipodi-0.dtd"
   xmlns:inkscape="http://www.inkscape.org/namespaces/inkscape"
   width="263.15179"
   height="101.51257"
   id="svg4458"
   version="1.1"
   inkscape:version="0.48.4 r9939"
   sodipodi:docname="riffleLogoSeal.svg">
  <defs
     id="defs4460" />
  <sodipodi:namedview
     id="base"
     pagecolor="#ffffff"
     bordercolor="#666666"
     borderopacity="1.0"
     inkscape:pageopacity="0.0"
     inkscape:pageshadow="2"
     inkscape:zoom="0.98994949"
     inkscape:cx="195.66301"
     inkscape:cy="25.24118"
     inkscape:document-units="px"
     inkscape:current-layer="layer1"
     showgrid="false"
     inkscape:window-width="613"
     inkscape:window-height="667"
     inkscape:window-x="250"
     inkscape:window-y="38"
     inkscape:window-maximized="0"
     fit-margin-top="0"
     fit-margin-left="0"
     fit-margin-right="0"
     fit-margin-bottom="0"
     showborder="false"
     inkscape:showpageshadow="false" />
  <metadata
     id="metadata4463">
    <rdf:RDF>
      <cc:Work
         rdf:about="">
        <dc:format>image/svg+xml</dc:format>
        <dc:type
           rdf:resource="http://purl.org/dc/dcmitype/StillImage" />
        <dc:title></dc:title>
      </cc:Work>
    </rdf:RDF>
  </metadata>
  <g
     inkscape:label="Layer 1"
     inkscape:groupmode="layer"
     id="layer1"
     transform="translate(-139.85267,-341.6059)">
    <path
       style="fill:#000000;stroke-width:100;stroke-miterlimit:4;stroke-dasharray:none"
       d="m 175.38244,358.20271 c -5.0827,-0.53382 -12.47028,-2.26782 -17.60183,-4.13145 -1.48215,-0.53828 -4.03096,-1.46417 -5.66402,-2.05752 -4.0493,-1.47128 -5.86971,-2.01499 -9.40668,-2.80956 -1.6619,-0.37333 -2.94552,-0.73218 -2.85248,-0.79741 0.0977,-0.0685 1.82132,0.25688 4.0838,0.77108 3.86462,0.87833 7.52771,1.99269 11.11366,3.3809 6.10705,2.36418 10.27917,3.59382 16.07395,4.73744 5.23681,1.0335 8.6264,1.2565 12.62067,0.83028 4.05051,-0.43221 10.56781,-1.90452 14.90755,-3.36775 2.73484,-0.9221 4.0619,-1.39197 8.54241,-3.02454 3.05835,-1.11438 6.40461,-2.04109 10.4087,-2.88255 4.432,-0.93142 6.57869,-1.26946 9.02905,-1.42186 4.66795,-0.29033 7.55143,-0.0677 12.89779,0.99595 2.07931,0.41367 4.71807,0.99279 5.8639,1.28694 2.0635,0.52972 7.15152,2.25729 11.33575,3.84891 3.40892,1.2967 7.62856,2.48385 12.07897,3.3983 7.78597,1.59983 11.34766,1.66482 18.14534,0.33111 5.65698,-1.10992 8.40186,-1.8984 15.44164,-4.43566 6.57541,-2.36988 9.86392,-3.32422 15.00396,-4.35416 3.67833,-0.73706 5.39322,-0.98958 7.69011,-1.13245 4.6376,-0.28845 7.53336,-0.064 12.86979,0.99771 2.07932,0.41366 4.71808,0.99279 5.86391,1.28693 2.0635,0.52972 7.15153,2.25729 11.33575,3.84889 4.994,1.89967 13.49402,3.97048 18.27032,4.45116 4.35081,0.43782 7.05971,0.24765 12.84749,-0.90196 4.76894,-0.94723 7.05481,-1.56825 11.35187,-3.08398 2.38905,-0.8427 3.65678,-1.20111 4.24852,-1.20111 0.5676,0 0.70838,0.0339 0.43053,0.10377 -0.2271,0.057 -1.59652,0.51749 -3.04321,1.02316 -4.2425,1.48289 -6.50523,2.11326 -10.79359,3.00706 -4.61832,0.96257 -6.32429,1.21324 -9.18703,1.34994 -1.89331,0.0903 -2.1805,0.0901 -4.16492,-0.005 -2.85564,-0.13637 -4.96592,-0.43926 -9.39318,-1.34822 -4.28432,-0.87961 -9.5218,-2.42003 -13.78928,-4.05564 -6.22164,-2.3846 -9.16124,-3.23743 -15.41204,-4.47127 -3.53546,-0.69786 -6.03444,-1.00175 -8.23768,-1.00175 -4.48509,0 -13.19304,1.63453 -19.11777,3.5885 -1.99037,0.65643 -4.99433,1.73759 -5.27357,1.89806 -0.3468,0.19926 -5.56462,1.97837 -7.74112,2.63946 -2.98608,0.907 -10.77942,2.47989 -13.46154,2.71689 -4.7874,0.42301 -8.85378,0.15938 -14.44863,-0.93674 -5.35008,-1.04817 -10.09825,-2.42323 -15.0564,-4.3603 -8.31997,-3.25049 -17.78798,-5.42723 -23.60645,-5.42723 -2.53135,0 -5.34685,0.32942 -9.02931,1.05645 -6.01596,1.18776 -8.71915,1.98333 -16.66478,4.90459 -5.13129,1.88658 -8.55007,2.84127 -14.16508,3.95559 -4.02683,0.79914 -6.4008,1.05646 -9.74697,1.05646 -1.75969,0 -2.58286,-0.0462 -4.59787,-0.25778 z"
       id="path4598-4-0-3"
       inkscape:connector-curvature="0" />
    <g
       id="g4623-1-7-0"
       transform="translate(76.717896,255.81348)">
      <rect
         transform="matrix(0.98100328,-0.19399117,0.19399117,0.98100328,0,0)"
         y="127.99654"
         x="55.695564"
         height="53.772732"
         width="46.878792"
         id="rect2985-8-1-9-4"
         style="fill:#ffffff;fill-opacity:1;stroke:#000000;stroke-width:2.75379348;stroke-miterlimit:4;stroke-opacity:1;stroke-dasharray:none" />
      <rect
         transform="matrix(0.98100328,-0.19399117,0.19399117,0.98100328,0,0)"
         y="117.03519"
         x="61.210724"
         height="11.030304"
         width="35.848488"
         id="rect2987-9-3-0-5"
         style="fill:#ffffff;fill-opacity:1;stroke:#000000;stroke-width:2.75379348;stroke-miterlimit:4;stroke-opacity:1;stroke-dasharray:none" />
      <rect
         transform="matrix(0.98100328,-0.19399117,0.19399117,0.98100328,0,0)"
         y="106.07382"
         x="71.206947"
         height="11.030304"
         width="15.856061"
         id="rect2989-1-3-6-2"
         style="fill:#ffffff;fill-opacity:1;stroke:#000000;stroke-width:2.75379348;stroke-miterlimit:4;stroke-opacity:1;stroke-dasharray:none" />
      <rect
         transform="matrix(0.98100328,-0.19399117,-0.19399117,-0.98100328,0,0)"
         y="-192.71594"
         x="61.210724"
         height="11.030304"
         width="35.848488"
         id="rect2987-6-3-8-7-1"
         style="fill:#ffffff;fill-opacity:1;stroke:#000000;stroke-width:2.75379348;stroke-miterlimit:4;stroke-opacity:1;stroke-dasharray:none" />
      <rect
         transform="matrix(0.98100328,-0.19399117,-0.19399117,-0.98100328,0,0)"
         y="-203.65771"
         x="71.450684"
         height="11.030304"
         width="15.856061"
         id="rect2989-6-8-8-2-9"
         style="fill:#ffffff;fill-opacity:1;stroke:#000000;stroke-width:2.75379348;stroke-miterlimit:4;stroke-opacity:1;stroke-dasharray:none" />
    </g>
    <text
       xml:space="preserve"
       style="font-size:32.96421051px;font-style:normal;font-weight:normal;line-height:125%;letter-spacing:0px;word-spacing:0px;fill:#000000;fill-opacity:1;stroke:none;font-family:Sans"
       x="221.87085"
       y="394.04251"
       id="text3919-3-9-8-7"
       sodipodi:linespacing="125%"><tspan
         sodipodi:role="line"
         id="tspan3921-7-9-1-5"
         x="221.87085"
         y="394.04251">r i f f l e</tspan></text>
    <text
       xml:space="preserve"
       style="font-size:11.39661121px;font-style:normal;font-variant:normal;font-weight:normal;font-stretch:normal;text-align:start;line-height:125%;letter-spacing:0px;word-spacing:0px;writing-mode:lr-tb;text-anchor:start;fill:#000000;fill-opacity:1;stroke:none;font-family:Junction;-inkscape-font-specification:Junction"
       x="223.74818"
       y="409.53177"
       id="text3915-3-7-1-4"
       sodipodi:linespacing="125%"><tspan
         sodipodi:role="line"
         id="tspan3917-3-2-1-9"
         x="223.74818"
         y="409.53177">publiclab.org/wiki/riffle</tspan></text>
    <path
       style="fill:#000000"
       d="m 376.84285,410.80024 c -10.08347,-1.23168 -18.06402,-8.26165 -20.20578,-17.79908 -0.6234,-2.77607 -0.48205,-6.98271 0.33645,-10.01211 2.46415,-9.12034 11.06739,-15.86986 21.01039,-16.48335 4.27066,-0.26351 8.34049,0.49348 12.00866,2.2336 2.62907,1.24717 4.38613,2.48028 6.53249,4.58452 5.97871,5.86137 8.0269,14.56446 5.27453,22.41225 -3.47696,9.91377 -14.18862,16.37945 -24.95674,15.06417 z m 5.77326,-4.1472 c 2.21455,-2.10715 3.90561,-3.79113 3.75795,-3.74219 -0.14767,0.049 -0.66115,0.17427 -1.14106,0.27849 -0.82162,0.17843 -0.94083,0.25356 -2.04109,1.28615 -0.6427,0.60316 -1.18638,1.21433 -1.20819,1.35816 -0.022,0.14534 -0.21856,0.33901 -0.44239,0.43593 -0.22149,0.0959 -1.32547,1.04055 -2.45325,2.09916 l -2.05053,1.92473 0.50675,0.0773 c 0.27871,0.0425 0.62793,0.0853 0.77605,0.0954 0.18709,0.0126 1.49872,-1.15173 4.29576,-3.81311 z m 2.84302,-0.51717 c 2.5289,-2.39159 4.58044,-4.36497 4.55899,-4.3853 -0.0214,-0.0203 -0.65204,0.177 -1.40127,0.43849 l -1.36224,0.47546 -4.13112,3.90984 -4.13114,3.90985 0.93438,0 0.93437,0 4.59803,-4.34834 z m 7.19896,-4.7773 c 5.15437,-4.8763 9.4221,-8.95182 9.48381,-9.05673 0.0617,-0.10489 0.15445,-0.59125 0.20603,-1.08078 l 0.0938,-0.89003 -4.19583,3.96218 c -3.90906,3.69142 -4.18059,3.97663 -3.973,4.17323 0.12255,0.11607 0.2228,0.31652 0.2228,0.44545 0,0.36176 -1.04231,1.14183 -2.50184,1.87236 -1.30747,0.65441 -1.38298,0.71875 -6.02255,5.13209 l -4.69849,4.46938 1.00682,-0.0806 1.00682,-0.0806 9.37161,-8.866 z m -14.00297,7.02767 1.94305,-1.84367 -0.92684,0 -0.92682,0 -1.78985,1.67866 c -0.98441,0.92327 -1.78984,1.72051 -1.78984,1.77166 0,0.0977 0.46251,0.18592 1.1428,0.21797 0.35207,0.0166 0.65613,-0.21976 2.3475,-1.82462 z m 6.57788,1.40353 0.87258,-0.20309 7.73645,-7.32356 7.73649,-7.32354 0.23631,-0.96923 c 0.12996,-0.53304 0.26569,-1.02641 0.30161,-1.09634 0.0358,-0.0699 -4.05021,3.76346 -9.08029,8.51865 -5.03007,4.7552 -9.14558,8.66414 -9.14558,8.68652 0,0.0225 0.10572,0.0121 0.23493,-0.0228 0.1292,-0.0349 0.62758,-0.15489 1.1075,-0.2666 z m -8.66325,-1.46272 c 0.95516,-0.9067 1.7094,-1.67198 1.67609,-1.7006 -0.0332,-0.0286 -0.39282,-0.0897 -0.7989,-0.13562 l -0.73833,-0.0836 -1.67144,1.5891 c -0.91929,0.874 -1.64419,1.61209 -1.6109,1.64017 0.0636,0.0537 1.03703,0.3034 1.27065,0.32593 0.075,0.007 0.91767,-0.72871 1.87283,-1.63541 z m -1.81862,-0.439 c 1.54679,-1.46859 1.64753,-1.59365 1.44109,-1.78917 -0.12207,-0.11563 -0.22194,-0.26419 -0.22194,-0.33016 0,-0.17691 0.74768,-0.57643 1.40504,-0.75075 0.41076,-0.10893 0.8115,-0.379 1.40733,-0.9484 l 0.83304,-0.7961 -0.48795,-0.27269 c -0.26838,-0.14998 -0.53027,-0.27268 -0.58199,-0.27268 -0.13641,0 -6.8035,6.33815 -6.7309,6.39881 0.10488,0.0876 0.85658,0.31953 1.06987,0.33006 0.11185,0.005 0.95174,-0.70049 1.86641,-1.56892 z m 13.90504,0.81029 1.07395,-0.4199 5.0749,-4.77778 c 4.63627,-4.36483 5.11454,-4.85471 5.53349,-5.66782 0.43683,-0.84782 1.03575,-2.22511 0.96758,-2.22511 -0.0176,0 -3.29381,3.0898 -7.28038,6.86622 -5.28018,5.00183 -7.13907,6.8361 -6.8459,6.75527 0.22133,-0.0611 0.88571,-0.29992 1.47636,-0.53088 z m -13.77924,-2.96385 c 3.63422,-3.44418 3.59539,-3.38785 2.33575,-3.38785 l -0.61501,0 -3.19991,3.01394 c -1.75994,1.65766 -3.1999,3.05336 -3.1999,3.10155 0,0.0908 0.90346,0.47817 1.14204,0.48973 0.0744,0.004 1.66604,-1.44421 3.53703,-3.21737 z m -2.19432,0.0335 c 2.44593,-2.32842 2.62349,-2.52639 2.00505,-2.23556 -0.37318,0.1755 -1.0349,0.40724 -1.47047,0.51497 -0.74907,0.18528 -0.89336,0.29192 -2.66366,1.96868 l -1.87169,1.77279 0.52308,0.26128 c 0.2877,0.14369 0.58407,0.2638 0.65859,0.2669 0.0745,0.004 1.34312,-1.14398 2.8191,-2.54906 z m -0.80084,-1.48734 c -0.0285,-0.027 -0.44146,-0.01 -0.91758,0.0386 l -0.8657,0.0878 -1.37777,1.30943 -1.37778,1.30943 0.52132,0.31921 0.52132,0.31921 1.77405,-1.66731 c 0.97573,-0.91701 1.75068,-1.6894 1.72214,-1.71644 z m 20.8107,2.23965 c 2.33433,-1.50855 5.17842,-4.39278 6.4351,-6.52592 0.30207,-0.51273 -0.47342,0.16364 -4.00806,3.49587 -2.41041,2.2724 -4.38258,4.15093 -4.38258,4.17452 0,0.0647 0.89299,-0.45779 1.95554,-1.14447 z m -24.18764,-0.98067 1.32241,-1.25724 -0.83703,-0.092 -0.83703,-0.092 -1.05841,0.99661 c -0.58213,0.54814 -1.05763,1.02657 -1.05668,1.06317 0.003,0.0948 0.84362,0.62136 1.00759,0.63082 0.0751,0.004 0.73184,-0.55785 1.45915,-1.24933 z m 12.59454,0.61034 c 0.27376,-0.0675 0.53642,-0.18217 0.58369,-0.25462 0.14578,-0.22342 -0.3438,-0.60624 -1.13325,-0.88611 -0.67421,-0.23902 -0.83721,-0.2516 -1.54682,-0.11944 -1.19974,0.22343 -2.44368,0.61368 -2.6285,0.8246 -0.13692,0.15626 -0.0998,0.21268 0.21885,0.33235 0.94047,0.35325 3.27668,0.40676 4.50603,0.10322 z m -13.28928,-2.24009 c -0.0951,-0.0339 -0.3414,-0.19616 -0.54752,-0.36044 l -0.37474,-0.29868 -1.03869,0.98963 -1.0387,0.98962 0.49822,0.41433 0.49823,0.41432 1.08798,-1.04352 c 0.67474,-0.64713 1.02237,-1.06696 0.91522,-1.10526 z m 15.90623,-0.37201 c -0.0177,-0.0168 -0.48335,0.0232 -1.0348,0.0888 -0.90848,0.10805 -1.05114,0.16517 -1.519,0.60831 l -0.51634,0.48906 0.58181,0.32895 0.58183,0.32895 0.96932,-0.9068 c 0.53314,-0.49877 0.95487,-0.92053 0.93718,-0.93727 z m -16.18493,-1.28659 c 3.11069,-2.94141 3.10162,-2.92762 1.93506,-2.94729 -0.51304,-0.009 -0.61421,0.0705 -3.15174,2.46505 l -2.62169,2.474 0.39133,0.38687 c 0.21522,0.21277 0.42081,0.38687 0.45686,0.38687 0.036,0 1.38163,-1.24448 2.99018,-2.7655 z m 12.26479,2.35132 c 0.57531,0.008 0.73355,-0.0464 1.10751,-0.38504 0.52165,-0.47229 0.54485,-0.59943 0.10941,-0.59943 -0.17977,0 -0.49337,-0.06 -0.69688,-0.13324 -0.34441,-0.12403 -0.42162,-0.0836 -1.11623,0.58469 -0.59424,0.57172 -0.67788,0.6981 -0.41062,0.62049 0.18458,-0.0536 0.63764,-0.0929 1.00681,-0.0875 z m -6.60918,-0.7913 c 0.80023,-0.19748 1.51616,-0.52778 2.77734,-1.28135 1.03671,-0.61945 1.5836,-0.59706 3.02659,0.12387 1.523,0.76091 2.33457,0.90935 3.887,0.71095 2.70226,-0.34535 5.63875,-1.23508 8.4631,-2.56425 2.05762,-0.96835 2.91785,-1.54732 2.86101,-1.92558 -0.0719,-0.47849 -0.8578,-0.63574 -3.47264,-0.69481 l -2.35679,-0.0533 -0.15918,0.96989 c -0.33863,2.06303 -1.13521,2.79042 -3.04755,2.78285 -1.40706,-0.005 -2.43474,-0.2929 -2.97274,-0.83111 -0.8598,-0.86013 -0.98931,-1.55756 -0.57494,-3.09626 0.26419,-0.98104 0.28071,-1.19863 0.1443,-1.89982 -0.0848,-0.43555 -0.15404,-0.97126 -0.15404,-1.19047 0,-0.62739 -0.35545,-0.50472 -0.46052,0.15896 -0.1113,0.70297 -0.38477,0.93625 -1.31395,1.12085 -0.67537,0.13417 -0.78285,0.12307 -1.23066,-0.12719 l -0.49067,-0.27421 -0.74116,0.31047 c -1.00278,0.42004 -3.4847,1.1725 -4.66585,1.41458 -1.27043,0.26037 -3.62232,0.25748 -4.57786,-0.005 -0.72194,-0.19878 -1.17918,-0.57011 -1.35757,-1.10249 -0.0805,-0.24004 -0.0972,-0.23891 -0.62577,0.0423 -1.16332,0.61881 -1.48815,1.42651 -0.82592,2.05375 0.56396,0.53416 1.50329,0.72392 3.43187,0.69328 1.39778,-0.0222 1.74557,0.0104 2.03641,0.19091 0.19291,0.11973 0.35075,0.31271 0.35075,0.42885 0,0.35311 -1.22553,1.3559 -2.57935,2.11059 -0.70451,0.39272 -1.31829,0.80623 -1.36395,0.91893 -0.20422,0.50404 0.54449,0.95455 2.00058,1.20377 0.88407,0.15133 3.02503,0.0503 3.99216,-0.18838 z m -7.23066,-2.08819 2.40068,-2.27647 -0.82678,-0.044 -0.82679,-0.044 -2.04004,1.93573 -2.04004,1.93573 0.38918,0.38474 c 0.21405,0.21161 0.42382,0.38475 0.46615,0.38475 0.0423,0 1.15726,-1.02441 2.47764,-2.27648 z m -1.53561,-0.57991 c 1.06607,-1.01155 1.91102,-1.85551 1.87764,-1.87546 -0.0334,-0.0199 -0.31142,-0.15714 -0.6179,-0.30489 l -0.55722,-0.26862 -1.77572,1.68536 -1.7757,1.68535 0.38642,0.45872 c 0.21253,0.25229 0.41741,0.45873 0.45529,0.45873 0.0379,0 0.9411,-0.82763 2.00719,-1.83919 z m -1.16775,-0.92828 c 1.6979,-1.61179 1.70877,-1.62586 1.55491,-2.01197 -0.0852,-0.21387 -0.11499,-0.53973 -0.0661,-0.72416 0.10765,-0.40616 0.89164,-1.15172 1.43548,-1.36508 0.29607,-0.11617 0.39606,-0.2395 0.39606,-0.48854 0,-0.28485 -0.42705,0.071 -2.94585,2.45487 -1.62021,1.53343 -2.90777,2.84894 -2.86125,2.92335 0.20676,0.33081 0.62903,0.83464 0.69951,0.83464 0.0425,0 0.84681,-0.7304 1.78724,-1.62311 z m 7.09384,0.19283 c 0.49242,-0.44944 0.65339,-0.73124 0.41769,-0.73124 -0.0574,0 -0.49546,0.37958 -0.97327,0.84351 -0.7073,0.6868 -0.7849,0.79901 -0.41769,0.60396 0.24806,-0.13176 0.68603,-0.45406 0.97327,-0.71623 z m -6.76149,-2.66922 c 2.16158,-2.04585 2.98798,-2.90883 2.98798,-3.12021 0,-0.16073 0.12429,-0.52297 0.27619,-0.80498 0.21026,-0.39036 0.44258,-0.58613 0.97324,-0.82016 0.38341,-0.16908 0.78849,-0.30797 0.90018,-0.30865 0.11171,-5.2e-4 1.07747,-0.8309 2.14615,-1.84491 l 1.94304,-1.84366 -0.87144,0 -0.87145,0 -5.61339,5.31794 -5.61341,5.31794 0.29113,0.46735 c 0.16013,0.25705 0.32998,0.46737 0.37746,0.46737 0.0475,0 1.43092,-1.27262 3.07432,-2.82803 z m 1.64556,-3.59303 5.43557,-5.14954 -0.93977,0 -0.93976,0 -4.87851,4.62204 -4.8785,4.62205 0.28411,0.5275 c 0.15628,0.29013 0.3285,0.52751 0.38271,0.52751 0.0542,0 2.54459,-2.31731 5.53415,-5.14956 z m 32.91683,-0.0317 c 4.03328,-3.82706 4.25661,-4.06343 4.29497,-4.54557 0.0384,-0.4823 0.0196,-0.51047 -0.36228,-0.5444 -0.36705,-0.0327 -0.81836,0.35827 -5.09443,4.41269 -3.08503,2.92512 -4.62506,4.4701 -4.49713,4.51159 0.23111,0.0749 0.75964,0.16124 1.13508,0.18539 0.18662,0.012 1.57526,-1.22192 4.52379,-4.0197 z m -30.59253,-5.09234 -0.90075,-0.0381 -4.13993,3.92119 -4.13993,3.92119 0.28789,0.61645 0.2879,0.61643 4.75277,-4.49947 4.75279,-4.49945 -0.90074,-0.0383 z m 26.87342,4.42482 4.69704,-4.45022 -0.93435,0 -0.93434,0 -4.4682,4.22516 c -2.50499,2.36876 -4.46819,4.32406 -4.46819,4.45022 0,0.18677 0.12005,0.22507 0.70549,0.22507 l 0.70549,0 4.69706,-4.45023 z m 2.14787,0 4.69703,-4.45022 -0.87256,0 -0.87258,0 -4.69705,4.45022 -4.69704,4.45023 0.87257,0 0.87258,0 4.69705,-4.45023 z m -0.56118,-4.42482 -0.90017,-0.0381 -3.53713,3.34404 -3.53714,3.34404 0.0881,0.63575 c 0.0485,0.34965 0.11921,0.6852 0.15727,0.74565 0.0381,0.0604 1.99519,-1.71329 4.34921,-3.94163 l 4.28003,-4.05154 -0.90017,-0.0381 z m -30.67382,-3.6e-4 -0.8328,-0.0384 -3.33491,3.15363 c -3.55159,3.35855 -3.40899,3.1686 -3.05005,4.06282 0.13848,0.34499 0.17617,0.31375 4.09516,-3.39564 l 3.95539,-3.7438 -0.83279,-0.0384 z m 25.99955,3.1537 3.35404,-3.17874 -0.87278,0 -0.87275,0 -2.78705,2.64203 -2.78703,2.64203 0.23764,0.53541 c 0.13069,0.29448 0.26828,0.53599 0.30576,0.5367 0.0375,5.2e-4 1.57744,-1.42913 3.42217,-3.17743 z m -30.4059,-0.19074 3.15256,-2.988 -0.93135,0 -0.93136,0 -2.45715,2.32048 -2.45716,2.32048 0.14152,0.50859 c 0.18044,0.64846 0.24324,0.82648 0.29154,0.82648 0.0213,0 1.45749,-1.34461 3.1914,-2.98803 z m 20.67333,2.04481 c 0,-0.0992 0.0385,-0.28514 0.0858,-0.41325 0.0743,-0.20176 0.0453,-0.19636 -0.21765,0.0403 -0.1669,0.15029 -0.26234,0.33625 -0.21211,0.41323 0.12963,0.19866 0.34396,0.17352 0.34396,-0.0403 z m 8.32302,-2.55339 2.61515,-2.47942 -0.92801,0 -0.928,0 -1.92336,1.80621 c -1.18115,1.10921 -1.92336,1.90304 -1.92336,2.05715 0,0.2969 0.28971,1.09547 0.39744,1.09547 0.0414,0 1.25181,-1.11574 2.69014,-2.47941 z m -8.18878,0.74318 c 0,-0.84838 -0.0842,-0.95601 -0.44935,-0.57392 -0.1796,0.18797 -0.20574,0.38461 -0.13559,1.02024 0.0836,0.75694 0.0965,0.77911 0.33592,0.57391 0.19268,-0.16518 0.24902,-0.39595 0.24902,-1.02023 z m -22.08287,-1.06106 2.27916,-2.16154 -0.94041,0 -0.94041,0 -1.52527,1.4488 -1.52527,1.44879 0.094,0.71275 c 0.0517,0.392 0.13566,0.71273 0.18653,0.71273 0.0508,0 1.11813,-0.97268 2.37166,-2.16153 z m 11.23909,1.06567 c 0.80061,-0.17247 1.06051,-0.29892 1.60384,-0.7803 0.68762,-0.60918 0.73732,-0.7775 0.4703,-1.59259 l -0.15747,-0.48076 -1.60882,1.52973 c -0.88485,0.84136 -1.53106,1.52975 -1.43605,1.52975 0.0951,0 0.60272,-0.0926 1.1282,-0.20583 z m 18.53988,-3.20178 -0.90095,-0.0381 -0.83895,0.80105 -0.83895,0.80104 -0.0894,0.95362 -0.0894,0.95362 1.8294,-1.71652 1.82939,-1.71651 -0.90094,-0.0381 z m -16.36192,2.47469 c 0.13503,-0.0935 0.22088,-0.23997 0.1908,-0.32544 -0.0349,-0.0992 -0.17134,-0.0378 -0.37747,0.17002 -0.34194,0.34474 -0.22601,0.44123 0.18667,0.15542 z m -14.31085,-2.475 c -0.8275,-0.0383 -0.83817,-0.0342 -1.43035,0.52663 l -0.59663,0.56511 0.0965,0.7311 0.0964,0.73112 1.3339,-1.25775 1.3339,-1.25776 -0.83371,-0.0384 z m 22.59693,2.30744 c 0.25126,-0.21536 0.29877,-0.76284 0.12893,-1.48538 l -0.0848,-0.36075 -0.31332,0.31674 c -0.28057,0.28363 -0.30351,0.39107 -0.21946,1.02827 0.0516,0.39134 0.12745,0.71155 0.16851,0.71155 0.0411,0 0.1851,-0.0947 0.32013,-0.21043 z m 6.35047,-2.31025 c -0.57777,-0.0672 -0.73528,0.0553 -0.73528,0.57168 l 0,0.47482 0.54525,-0.50262 0.54527,-0.50262 -0.35524,-0.0413 z m -6.37347,0.0827 c 0,-0.0577 -0.18122,-0.10498 -0.40272,-0.10498 -0.33241,0 -0.40271,0.0518 -0.40271,0.29668 0,0.16318 0.0408,0.33535 0.0908,0.38261 0.0983,0.0931 0.71471,-0.40221 0.71471,-0.57431 z m -24.1636,0.21289 0.31527,-0.31787 -0.35901,0 c -0.29344,0 -0.359,0.058 -0.359,0.31787 0,0.17484 0.0197,0.31787 0.0437,0.31787 0.0241,0 0.18559,-0.14303 0.359,-0.31787 z m 15.43786,-0.82852 c 0,-0.23419 -1.88906,-7.81096 -2.02408,-8.11833 -0.46446,-1.05727 1.13045,-1.56347 5.69175,-1.80646 1.41603,-0.0754 2.93705,-0.11852 3.38005,-0.0958 0.76535,0.0393 0.8114,0.0604 0.92505,0.42483 l 0.11961,0.38346 1.07065,-0.34026 c 2.64193,-0.83959 5.03847,-0.49865 6.04681,0.86024 l 0.38721,0.52183 -0.54467,4.05263 c -0.29957,2.22893 -0.49798,4.09685 -0.44091,4.15089 0.0571,0.0541 3.51333,0.0835 7.68059,0.0655 l 7.57685,-0.0329 -0.0461,-1.14435 c -0.13319,-3.29785 -1.38923,-7.19279 -3.23926,-10.0448 -2.33291,-3.59645 -5.65829,-6.46356 -9.57663,-8.25686 -7.37664,-3.37612 -15.94036,-2.82274 -22.71212,1.46758 -3.43929,2.17901 -6.08696,5.06372 -7.86524,8.56937 -1.36673,2.69435 -2.0803,5.26561 -2.23186,8.0422 l -0.078,1.43043 7.94024,0 c 5.2883,0 7.94024,-0.0432 7.94024,-0.1292 z m -9.05524,-6.85915 c -0.9869,-0.55819 -1.27649,-0.77757 -1.1075,-0.839 0.12585,-0.0457 0.22882,-0.17873 0.22882,-0.29556 0,-0.77137 1.004,-1.03087 1.73483,-0.44841 0.58497,0.46622 0.56503,1.09901 -0.0446,1.41457 -0.23258,0.12039 -0.20474,0.16053 0.301,0.43416 0.55596,0.30081 0.70932,0.49319 0.39154,0.49116 -0.0923,-5.2e-4 -0.76915,-0.3412 -1.5041,-0.75692 z m 0.79062,-0.50439 c 0.3069,-0.3212 0.17087,-0.71893 -0.32974,-0.96413 -0.51765,-0.25353 -0.76538,-0.23847 -0.93213,0.0567 -0.25978,0.45974 0.22058,1.1381 0.81349,1.1488 0.11776,0.003 0.31954,-0.10646 0.44838,-0.24132 z m 29.29663,1.00258 c -0.7319,-0.5453 -0.52015,-1.77722 0.27309,-1.58863 0.17018,0.0404 0.30791,0.0153 0.30791,-0.0564 0,-0.0713 0.0988,-0.12959 0.21953,-0.12959 0.12075,0 0.35949,-0.14303 0.53057,-0.31786 0.17105,-0.17483 0.41107,-0.31787 0.53336,-0.31787 0.21181,0 1.39696,1.10328 1.39996,1.30327 0.002,0.13877 -0.23721,0.11682 -0.3334,-0.0306 -0.0485,-0.0743 -0.24374,-0.0128 -0.47576,0.14965 -0.3488,0.24425 -0.43172,0.25627 -0.72897,0.1056 -0.18445,-0.0935 -0.37065,-0.27528 -0.41378,-0.40396 -0.0431,-0.12866 -0.16996,-0.23394 -0.28189,-0.23394 -0.11192,0 -0.17219,0.0715 -0.13391,0.15893 0.0383,0.0874 0.14583,0.381 0.23906,0.6524 0.15811,0.4604 0.14872,0.50935 -0.1404,0.7311 -0.39456,0.30262 -0.56454,0.29885 -0.99537,-0.0221 z m 0.90965,-0.23813 c 0.10737,-0.16455 -0.1653,-0.80748 -0.42035,-0.99114 -0.27026,-0.19463 -0.71375,0.004 -0.71375,0.32092 0,0.54927 0.87543,1.06663 1.1341,0.67022 z m 1.52309,-1.2256 c 0.0217,-0.14372 -0.0752,-0.35967 -0.21551,-0.47987 -0.45102,-0.3866 -0.97946,0.0498 -0.68702,0.56729 0.19422,0.34373 0.84697,0.28051 0.90253,-0.0874 z m -31.55665,-1.35489 c -0.49678,-0.33648 -0.72925,-0.5694 -0.64655,-0.64774 0.0826,-0.0783 0.37466,0.0483 0.81188,0.35235 0.78387,0.54501 1.07927,0.52126 1.08228,-0.087 0.002,-0.33322 -0.11077,-0.50919 -0.55846,-0.87395 -0.8226,-0.67024 -0.44415,-0.69721 0.49195,-0.035 0.84387,0.5969 1.0886,0.89351 0.64702,0.78413 -0.19839,-0.0491 -0.26505,0.007 -0.28554,0.24174 -0.0395,0.45194 -0.27529,0.80168 -0.53669,0.79599 -0.12662,-0.004 -0.57927,-0.24144 -1.00589,-0.53043 z m 28.36367,-0.13209 c 5.5e-4,-0.0874 0.34799,-0.37055 0.77188,-0.62916 0.69099,-0.42158 1.03381,-0.57914 0.93853,-0.43134 -0.0184,0.0287 0.13257,0.17583 0.33562,0.32709 0.20303,0.15128 0.36915,0.35672 0.36915,0.45654 0,0.25872 -0.17569,0.2243 -0.37158,-0.0728 -0.2343,-0.35536 -0.62429,-0.3174 -1.30644,0.12715 -0.65312,0.4256 -0.73886,0.45149 -0.73716,0.22251 z m -1.00039,-1.268 c -0.31644,-0.42793 -0.25736,-0.89772 0.1602,-1.27392 0.5675,-0.5113 1.02463,-0.56792 1.43635,-0.17798 0.46792,0.44321 0.44254,0.90808 -0.0746,1.3656 -0.5267,0.46601 -1.21242,0.50488 -1.52198,0.0863 z m 1.17454,-0.22932 c 0.42472,-0.31644 0.57159,-0.7107 0.35629,-0.95642 -0.24552,-0.2802 -0.77364,-0.22124 -1.14181,0.12748 -0.75835,0.71826 -0.0579,1.45736 0.78552,0.82894 z M 365.719,376.98259 c -0.7848,-0.69254 -1.13505,-1.08213 -1.02878,-1.14434 0.0962,-0.0564 0.34569,0.0751 0.6194,0.32636 0.30143,0.27674 0.45823,0.3551 0.45823,0.22899 0,-0.31138 0.52034,-0.74823 0.89123,-0.74823 0.46275,0 1.25666,0.75588 1.25666,1.19644 0,0.18397 -0.12699,0.43043 -0.28496,0.5531 -0.15672,0.12169 -0.38324,0.31497 -0.5034,0.42948 -0.20213,0.19264 -0.30743,0.1297 -1.40838,-0.8418 z m 1.63291,0.29029 c 0.44634,-0.42276 -0.0893,-1.29481 -0.7507,-1.22197 -0.2505,0.0276 -0.39724,0.1443 -0.48694,0.38729 -0.10693,0.2897 -0.0753,0.40125 0.18872,0.66754 0.34018,0.34296 0.78797,0.41431 1.04892,0.16714 z m 23.4076,-0.56389 c 0.0264,-0.13043 0.10782,-0.22286 0.18063,-0.20537 0.1951,0.0469 0.161,0.31943 -0.0483,0.38549 -0.11762,0.0371 -0.16382,-0.0257 -0.13241,-0.18012 z m -23.16105,-1.48546 c -0.56382,-0.58826 -1.02515,-1.11009 -1.02515,-1.15964 0,-0.25645 0.45545,0.0933 1.2638,0.97035 0.62939,0.68291 0.96524,0.95508 1.11249,0.90157 0.14233,-0.0517 0.19045,-0.0183 0.14794,0.10252 -0.14453,0.41114 -0.51915,0.20751 -1.49908,-0.8148 z m 20.87558,0.94978 c -0.20967,-0.13207 0.0274,-0.34001 0.24335,-0.21354 0.0705,0.0413 0.33551,-0.006 0.58873,-0.10708 0.40245,-0.15926 0.49837,-0.2918 0.76222,-1.05302 0.35987,-1.03835 0.38509,-1.08535 0.53542,-0.99735 0.0642,0.0376 -3.9e-4,0.39078 -0.14353,0.78488 -0.14314,0.39408 -0.26026,0.73713 -0.26026,0.76233 0,0.0251 0.30693,-0.1015 0.68205,-0.28154 1.29578,-0.62195 1.14242,-0.25014 -0.17469,0.42347 -1.37063,0.70098 -1.93116,0.87211 -2.23329,0.68185 z m -19.40779,-1.27921 c -0.56515,-0.69565 -0.73749,-1.02883 -0.53218,-1.02883 0.0448,0 0.21087,0.15368 0.36917,0.34153 0.76332,0.90583 1.02314,1.29815 0.90531,1.36712 -0.0708,0.0415 -0.40486,-0.26446 -0.7423,-0.67982 z m 0.98703,-0.3833 c -0.52974,-0.50175 -0.55839,-1.29955 -0.0578,-1.6102 0.19275,-0.11963 0.4346,-0.17074 0.57054,-0.12057 0.19427,0.0718 0.15887,0.11799 -0.20034,0.26213 -0.47082,0.18894 -0.55771,0.49417 -0.28193,0.9904 0.30587,0.55044 0.89634,0.63785 1.23178,0.18237 l 0.2107,-0.28609 0.007,0.27889 c 0.007,0.30716 -0.4491,0.67474 -0.83862,0.67474 -0.13692,0 -0.42551,-0.16726 -0.64135,-0.37167 z m 17.86457,0.11983 c 0,-0.0919 0.74789,-1.30096 1.00466,-1.62418 0.0479,-0.0604 0.94139,0.39321 1.03367,0.52492 0.15414,0.21995 -0.0225,0.33736 -0.27915,0.18554 -0.40004,-0.23662 -0.87419,-0.0295 -1.2037,0.5258 -0.28532,0.48081 -0.55548,0.66948 -0.55548,0.38792 z m -1.65994,-0.77459 c -0.25637,-0.19102 -0.35371,-0.38075 -0.35371,-0.68956 0,-0.58331 0.56174,-1.20846 1.08588,-1.20846 0.45669,0 0.92777,0.39376 0.92777,0.77547 0,0.44474 -0.42386,1.14567 -0.76767,1.2695 -0.4448,0.16016 -0.49005,0.15271 -0.89227,-0.14695 z m 1.18347,-0.65456 c 0.22735,-0.51214 0.12135,-0.84583 -0.30056,-0.94613 -0.25931,-0.0617 -0.40218,-0.0113 -0.58975,0.20818 -0.41914,0.49027 -0.46084,0.90384 -0.11766,1.16704 0.38044,0.29178 0.75961,0.13038 1.00797,-0.42909 z m -15.92978,-0.53892 c -0.38405,-0.73142 -0.64726,-1.37512 -0.58491,-1.43043 0.0624,-0.0553 0.13764,-0.0433 0.1673,0.0266 0.30542,0.72015 1.35961,2.4087 1.48839,2.38405 0.0913,-0.0175 0.16608,0.0541 0.16608,0.15894 0,0.10614 -0.11942,0.19072 -0.26928,0.19072 -0.20788,0 -0.42853,-0.30325 -0.96758,-1.32986 z m -3.59586,0.75768 c 0,-0.11655 0.0755,-0.18807 0.16779,-0.15893 0.19004,0.06 0.16917,0.26447 -0.0335,0.32847 -0.0739,0.0233 -0.13425,-0.053 -0.13425,-0.16954 z m 5.04845,-0.13755 c -0.17804,-0.43945 -0.0713,-0.70315 0.38836,-0.96006 0.25842,-0.14441 0.46985,-0.34455 0.46985,-0.44472 0,-0.32319 -0.40279,-0.3456 -0.74463,-0.0414 -0.43162,0.38405 -0.60088,0.21281 -0.19456,-0.19684 0.1873,-0.18885 0.46394,-0.31737 0.68313,-0.31737 0.32605,0 0.40428,0.0876 0.6807,0.7629 0.17178,0.41959 0.35795,0.76289 0.41369,0.76289 0.0558,0 0.10136,0.0639 0.10136,0.14199 0,0.078 -0.11381,0.11378 -0.2529,0.0794 -0.14723,-0.0365 -0.34299,0.037 -0.46853,0.17589 -0.26517,0.29334 -0.96296,0.31759 -1.07647,0.0374 z m 0.9656,-0.20574 c 0.21229,-0.20108 0.20739,-0.73825 -0.007,-0.73465 -0.32318,0.005 -0.81692,0.46557 -0.72995,0.68023 0.0983,0.24266 0.50611,0.27278 0.73666,0.0544 z m 10.56155,0.22956 c -0.2489,-0.17237 -0.24938,-0.19719 -0.0177,-0.89332 0.13107,-0.3938 0.20044,-0.82897 0.15417,-0.96703 -0.0581,-0.17367 -0.0221,-0.25103 0.11696,-0.25103 0.11059,0 0.22038,-0.12426 0.24398,-0.27612 0.0237,-0.15187 0.12477,-0.30169 0.22485,-0.33294 0.13923,-0.0435 0.16036,0.0364 0.0899,0.33981 -0.0696,0.30017 -0.0404,0.41535 0.12008,0.47368 0.31021,0.11275 0.25897,0.30618 -0.0718,0.27088 -0.22946,-0.0245 -0.31903,0.0793 -0.4678,0.54189 -0.24631,0.76591 -0.23534,0.90214 0.0789,0.97998 0.14685,0.0364 0.23388,0.11683 0.19344,0.17882 -0.10698,0.16395 -0.37229,0.13819 -0.6651,-0.0646 z m -9.37912,-1.51308 c -0.13013,-0.64375 -0.26968,-1.32782 -0.31014,-1.52013 -0.0447,-0.21267 -0.0154,-0.34966 0.0749,-0.34966 0.0816,0 0.18544,0.15734 0.23063,0.34966 0.19685,0.83789 0.1707,0.81136 0.59533,0.60339 0.74685,-0.36579 1.34125,0.13653 1.34125,1.13348 0,0.53377 -0.30812,0.78386 -1.08261,0.8787 l -0.61276,0.075 -0.23661,-1.17048 z m 1.58952,0.37846 c 0.26351,-0.71398 -0.53089,-1.40286 -1.05034,-0.91087 -0.2504,0.23718 -0.27528,0.53797 -0.084,1.01467 0.1124,0.28003 0.20448,0.32775 0.56809,0.29436 0.33704,-0.0309 0.46349,-0.11988 0.56619,-0.39816 z m 6.60389,0.61404 c -0.0605,-0.14949 -0.1521,-0.16217 -0.4352,-0.0603 -0.40716,0.14662 -0.99349,-0.12058 -0.99349,-0.45275 0,-0.36374 0.51301,-0.69639 1.07395,-0.69639 0.44746,0 0.53695,-0.0424 0.53695,-0.2543 0,-0.21662 -0.0894,-0.2543 -0.60408,-0.2543 -0.33225,0 -0.6041,-0.0508 -0.6041,-0.113 0,-0.19052 0.91399,-0.29043 1.22316,-0.13371 0.26177,0.1327 0.27839,0.2093 0.18741,0.8637 -0.0549,0.39494 -0.0934,0.84682 -0.0854,1.00416 0.0162,0.32202 -0.18189,0.38611 -0.29911,0.0968 z m -0.25039,-0.39009 c 0.58415,-0.38753 0.16342,-0.75189 -0.56324,-0.48778 -0.25246,0.0918 -0.28344,0.5102 -0.0445,0.60151 0.26419,0.10096 0.29201,0.0958 0.60778,-0.11373 z m -4.94236,-0.0349 c -0.40583,-0.31125 -0.44885,-1.26927 -0.0746,-1.66105 0.6159,-0.64474 1.55654,-0.15338 1.55654,0.81307 0,0.95119 -0.77166,1.39275 -1.48193,0.84798 z m 1.00251,-0.22132 c 0.27595,-0.26138 0.26984,-0.92646 -0.0112,-1.22062 -0.46855,-0.49039 -0.986,-0.15446 -0.986,0.64008 0,0.39948 0.29483,0.78035 0.60408,0.78035 0.1002,0 0.27712,-0.09 0.39314,-0.19981 z m 1.17168,-0.61812 c 0.0475,-0.89199 0.2089,-1.35302 0.346,-0.98866 0.0472,0.12541 0.10593,0.12956 0.24837,0.0176 0.21899,-0.17215 0.91208,-0.0447 0.78834,0.14494 -0.0461,0.0707 -0.18952,0.0969 -0.31859,0.0581 -0.36041,-0.10835 -0.68139,0.3321 -0.7724,1.05996 -0.12659,1.01243 -0.34937,0.78953 -0.29172,-0.29188 z m 0.91865,16.98283 c 0,-0.25768 -0.96664,-4.78886 -1.03415,-4.84761 -0.1074,-0.0935 0.0489,4.47044 0.16227,4.73532 0.0975,0.22788 0.87188,0.32764 0.87188,0.11229 z m 4.66908,-6.75405 c 1.35349,-0.30324 2.04305,-0.70764 2.04305,-1.19814 0,-0.41818 -0.84956,-1.28488 -1.50174,-1.53203 -1.65018,-0.62539 -5.0113,-0.1419 -6.08529,0.87536 -0.72484,0.68654 -0.23788,1.66063 1.02619,2.05266 0.8064,0.2501 2.93444,0.1569 4.51779,-0.19785 z m -8.0058,-0.94908 c 1.57022,-0.31363 2.61362,-1.04399 2.50702,-1.75486 -0.0404,-0.27011 -0.11321,-0.28811 -1.31817,-0.32647 -1.64289,-0.0524 -5.25637,0.18549 -6.45876,0.42506 -2.66593,0.53117 -2.39416,1.44159 0.5521,1.84952 0.9831,0.13612 3.60684,0.0286 4.71781,-0.19325 z"
       id="path3279"
       inkscape:connector-curvature="0" />
  </g>
</svg>
