<?xml version="1.0" encoding="UTF-8" standalone="no"?>
<!-- Created with Inkscape (http://www.inkscape.org/) -->

<svg
   xmlns:dc="http://purl.org/dc/elements/1.1/"
   xmlns:cc="http://creativecommons.org/ns#"
   xmlns:rdf="http://www.w3.org/1999/02/22-rdf-syntax-ns#"
   xmlns:svg="http://www.w3.org/2000/svg"
   xmlns="http://www.w3.org/2000/svg"
   xmlns:sodipodi="http://sodipodi.sourceforge.net/DTD/sodipodi-0.dtd"
   xmlns:inkscape="http://www.inkscape.org/namespaces/inkscape"
   width="211.08041"
   height="101.51257"
   id="svg4458"
   version="1.1"
   inkscape:version="0.48.4 r9939"
   sodipodi:docname="riffleLogoSmile.svg">
  <defs
     id="defs4460" />
  <sodipodi:namedview
     id="base"
     pagecolor="#ffffff"
     bordercolor="#666666"
     borderopacity="1.0"
     inkscape:pageopacity="0.0"
     inkscape:pageshadow="2"
     inkscape:zoom="3.959798"
     inkscape:cx="107.0388"
     inkscape:cy="47.880223"
     inkscape:document-units="px"
     inkscape:current-layer="layer1"
     showgrid="false"
     inkscape:window-width="1280"
     inkscape:window-height="776"
     inkscape:window-x="0"
     inkscape:window-y="24"
     inkscape:window-maximized="1"
     fit-margin-top="0"
     fit-margin-left="0"
     fit-margin-right="0"
     fit-margin-bottom="0"
     showborder="false"
     inkscape:showpageshadow="false" />
  <metadata
     id="metadata4463">
    <rdf:RDF>
      <cc:Work
         rdf:about="">
        <dc:format>image/svg+xml</dc:format>
        <dc:type
           rdf:resource="http://purl.org/dc/dcmitype/StillImage" />
        <dc:title></dc:title>
      </cc:Work>
    </rdf:RDF>
  </metadata>
  <g
     inkscape:label="Layer 1"
     inkscape:groupmode="layer"
     id="layer1"
     transform="translate(-139.85268,-341.6059)">
    <path
       style="fill:#000000;stroke-width:100;stroke-miterlimit:4;stroke-dasharray:none"
       d="m 168.41204,357.15392 c -4.08555,-0.42909 -10.0238,-1.82291 -14.14862,-3.32092 -1.19137,-0.43268 -3.24015,-1.17692 -4.55282,-1.65387 -3.25489,-1.18263 -4.71817,-1.61968 -7.56124,-2.25836 -1.33586,-0.30009 -2.36765,-0.58854 -2.29286,-0.64097 0.0785,-0.0551 1.464,0.20648 3.28262,0.6198 3.10644,0.70602 6.05089,1.60176 8.93333,2.71762 4.90894,1.90036 8.26255,2.88877 12.92048,3.80803 4.20943,0.83074 6.93403,1.00999 10.14469,0.66739 3.25586,-0.34742 8.49456,-1.53088 11.98291,-2.70705 2.19831,-0.7412 3.26502,-1.11889 6.86652,-2.43117 2.45835,-0.89576 5.14812,-1.64066 8.36667,-2.31704 3.56251,-0.74869 5.28805,-1.02041 7.25769,-1.14291 3.75217,-0.23337 6.06995,-0.0544 10.36744,0.80056 1.67138,0.33251 3.79246,0.79802 4.71349,1.03446 1.65867,0.4258 5.7485,1.81444 9.11185,3.09381 2.74014,1.04231 6.13195,1.99656 9.70926,2.73161 6.25848,1.28596 9.12142,1.3382 14.5855,0.26615 4.54716,-0.89217 6.75354,-1.52596 12.41222,-3.56545 5.28542,-1.90495 7.92877,-2.67206 12.06041,-3.49994 2.9567,-0.59246 4.33516,-0.79544 6.18143,-0.91028 3.72777,-0.23186 6.05543,-0.0514 10.34493,0.80197 1.67139,0.33251 3.79247,0.79802 4.7135,1.03445 1.65868,0.4258 5.74851,1.81445 9.11185,3.0938 4.01425,1.52698 10.8467,3.19153 14.68596,3.57791 3.49725,0.35193 5.6747,0.19907 10.32701,-0.72501 3.83335,-0.7614 5.67076,-1.26058 9.1248,-2.47895 1.92036,-0.67737 2.93938,-0.96547 3.41503,-0.96547 0.45624,0 0.56941,0.0272 0.34607,0.0834 -0.18255,0.0458 -1.28331,0.41597 -2.44618,0.82244 -3.41019,1.19196 -5.22901,1.69867 -8.67605,2.41712 -3.71228,0.77372 -5.08356,0.97522 -7.38468,1.0851 -1.52187,0.0726 -1.75272,0.0724 -3.34782,-0.004 -2.29541,-0.10962 -3.99169,-0.35309 -7.55038,-1.08372 -3.44381,-0.70704 -7.65377,-1.94526 -11.08404,-3.25999 -5.00105,-1.91677 -7.36394,-2.60229 -12.38843,-3.59407 -2.84186,-0.56095 -4.85057,-0.80522 -6.62157,-0.80522 -3.60518,0 -10.60477,1.31386 -15.36716,2.88449 -1.59988,0.52765 -4.01451,1.3967 -4.23897,1.52569 -0.27876,0.16017 -4.47293,1.59024 -6.22243,2.12164 -2.40026,0.72906 -8.66466,1.99337 -10.82059,2.18387 -3.84819,0.34002 -7.1168,0.12812 -11.61403,-0.75296 -4.30047,-0.84254 -8.11713,-1.94783 -12.10256,-3.50488 -6.68772,-2.61279 -14.29825,-4.36249 -18.97522,-4.36249 -2.03474,0 -4.29788,0.26479 -7.2579,0.84919 -4.83572,0.95474 -7.00859,1.59423 -13.3954,3.94239 -4.12461,1.51646 -6.87268,2.28385 -11.38611,3.17956 -3.23683,0.64236 -5.14506,0.8492 -7.83476,0.8492 -1.41447,0 -2.07614,-0.0371 -3.69584,-0.20721 z"
       id="path4598-4-0-3"
       inkscape:connector-curvature="0" />
    <g
       id="g4623-1-7-0"
       transform="translate(76.717896,255.81348)">
      <rect
         transform="matrix(0.98100328,-0.19399117,0.19399117,0.98100328,0,0)"
         y="127.99654"
         x="55.695564"
         height="53.772732"
         width="46.878792"
         id="rect2985-8-1-9-4"
         style="fill:#ffffff;fill-opacity:1;stroke:#000000;stroke-width:2.75379348;stroke-miterlimit:4;stroke-opacity:1;stroke-dasharray:none" />
      <rect
         transform="matrix(0.98100328,-0.19399117,0.19399117,0.98100328,0,0)"
         y="117.03519"
         x="61.210724"
         height="11.030304"
         width="35.848488"
         id="rect2987-9-3-0-5"
         style="fill:#ffffff;fill-opacity:1;stroke:#000000;stroke-width:2.75379348;stroke-miterlimit:4;stroke-opacity:1;stroke-dasharray:none" />
      <rect
         transform="matrix(0.98100328,-0.19399117,0.19399117,0.98100328,0,0)"
         y="106.07382"
         x="71.206947"
         height="11.030304"
         width="15.856061"
         id="rect2989-1-3-6-2"
         style="fill:#ffffff;fill-opacity:1;stroke:#000000;stroke-width:2.75379348;stroke-miterlimit:4;stroke-opacity:1;stroke-dasharray:none" />
      <rect
         transform="matrix(0.98100328,-0.19399117,-0.19399117,-0.98100328,0,0)"
         y="-192.71594"
         x="61.210724"
         height="11.030304"
         width="35.848488"
         id="rect2987-6-3-8-7-1"
         style="fill:#ffffff;fill-opacity:1;stroke:#000000;stroke-width:2.75379348;stroke-miterlimit:4;stroke-opacity:1;stroke-dasharray:none" />
      <rect
         transform="matrix(0.98100328,-0.19399117,-0.19399117,-0.98100328,0,0)"
         y="-203.65771"
         x="71.450684"
         height="11.030304"
         width="15.856061"
         id="rect2989-6-8-8-2-9"
         style="fill:#ffffff;fill-opacity:1;stroke:#000000;stroke-width:2.75379348;stroke-miterlimit:4;stroke-opacity:1;stroke-dasharray:none" />
    </g>
    <text
       xml:space="preserve"
       style="font-size:32.96421051px;font-style:normal;font-weight:normal;line-height:125%;letter-spacing:0px;word-spacing:0px;fill:#000000;fill-opacity:1;stroke:none;font-family:Sans"
       x="221.87085"
       y="390.04251"
       id="text3919-3-9-8-7"
       sodipodi:linespacing="125%"><tspan
         sodipodi:role="line"
         id="tspan3921-7-9-1-5"
         x="221.87085"
         y="390.04251">r i f f l e</tspan></text>
    <text
       xml:space="preserve"
       style="font-size:11.39661121px;font-style:normal;font-variant:normal;font-weight:normal;font-stretch:normal;text-align:start;line-height:125%;letter-spacing:0px;word-spacing:0px;writing-mode:lr-tb;text-anchor:start;fill:#000000;fill-opacity:1;stroke:none;font-family:Junction;-inkscape-font-specification:Junction"
       x="223.74818"
       y="405.53177"
       id="text3915-3-7-1-4"
       sodipodi:linespacing="125%"><tspan
         sodipodi:role="line"
         id="tspan3917-3-2-1-9"
         x="223.74818"
         y="405.53177">publiclab.org/wiki/riffle</tspan></text>
    <text
       xml:space="preserve"
       style="font-size:25.23896408px;font-style:normal;font-weight:normal;line-height:125%;letter-spacing:0px;word-spacing:0px;fill:#000000;fill-opacity:1;stroke:none;font-family:Sans"
       x="374.89648"
       y="-175.4034"
       id="text3329"
       sodipodi:linespacing="125%"
       transform="matrix(0,1,-1,0,0,0)"><tspan
         sodipodi:role="line"
         id="tspan3331"
         x="374.89648"
         y="-175.4034">:)</tspan></text>
  </g>
</svg>
