<?xml version="1.0" encoding="UTF-8" standalone="no"?>
<!-- Created with Inkscape (http://www.inkscape.org/) -->

<svg
   xmlns:dc="http://purl.org/dc/elements/1.1/"
   xmlns:cc="http://creativecommons.org/ns#"
   xmlns:rdf="http://www.w3.org/1999/02/22-rdf-syntax-ns#"
   xmlns:svg="http://www.w3.org/2000/svg"
   xmlns="http://www.w3.org/2000/svg"
   xmlns:sodipodi="http://sodipodi.sourceforge.net/DTD/sodipodi-0.dtd"
   xmlns:inkscape="http://www.inkscape.org/namespaces/inkscape"
   width="247.25337"
   height="102.00214"
   id="svg4458"
   version="1.1"
   inkscape:version="0.48.4 r9939"
   sodipodi:docname="riffleLogoSmile.svg">
  <defs
     id="defs4460" />
  <sodipodi:namedview
     id="base"
     pagecolor="#ffffff"
     bordercolor="#666666"
     borderopacity="1.0"
     inkscape:pageopacity="0.0"
     inkscape:pageshadow="2"
     inkscape:zoom="1.979899"
     inkscape:cx="95.850337"
     inkscape:cy="28.840055"
     inkscape:document-units="px"
     inkscape:current-layer="layer1"
     showgrid="false"
     inkscape:window-width="1280"
     inkscape:window-height="776"
     inkscape:window-x="0"
     inkscape:window-y="24"
     inkscape:window-maximized="1"
     fit-margin-top="0"
     fit-margin-left="0"
     fit-margin-right="0"
     fit-margin-bottom="0"
     showborder="false"
     inkscape:showpageshadow="false"
     showguides="true"
     inkscape:guide-bbox="true" />
  <metadata
     id="metadata4463">
    <rdf:RDF>
      <cc:Work
         rdf:about="">
        <dc:format>image/svg+xml</dc:format>
        <dc:type
           rdf:resource="http://purl.org/dc/dcmitype/StillImage" />
        <dc:title />
      </cc:Work>
    </rdf:RDF>
  </metadata>
  <g
     inkscape:label="Layer 1"
     inkscape:groupmode="layer"
     id="layer1"
     transform="translate(-139.85267,-341.35617)">
    <path
       style="fill:#000000;stroke-width:100;stroke-miterlimit:4;stroke-dasharray:none"
       d="m 173.30628,357.89031 c -4.7857,-0.50262 -11.74159,-2.1353 -16.57329,-3.89002 -1.39553,-0.50684 -3.79541,-1.37862 -5.33304,-1.9373 -3.81267,-1.3853 -5.52672,-1.89724 -8.85701,-2.64538 -1.56478,-0.35152 -2.7734,-0.68939 -2.68579,-0.75081 0.092,-0.0645 1.71489,0.24186 3.84517,0.72601 3.63879,0.82702 7.08783,1.87625 10.46424,3.18334 5.75019,2.22603 9.67851,3.38382 15.13467,4.46061 4.9308,0.97311 8.12232,1.18308 11.88319,0.78177 3.81382,-0.40695 9.95027,-1.79323 14.03642,-3.17096 2.57504,-0.86822 3.82456,-1.31063 8.04324,-2.84781 2.87964,-1.04926 6.03036,-1.92181 9.80048,-2.7141 4.17302,-0.877 6.19426,-1.19528 8.50143,-1.33878 4.39519,-0.27335 7.11017,-0.0637 12.14412,0.93776 1.95781,0.38949 4.44237,0.93478 5.52124,1.21173 1.94292,0.49877 6.73362,2.12538 10.67336,3.624 3.20971,1.22093 7.18278,2.33872 11.37314,3.19972 7.331,1.50635 10.68456,1.56754 17.08502,0.31177 5.32641,-1.04506 7.9109,-1.78746 14.53931,-4.17647 6.19118,-2.23139 9.28752,-3.12996 14.12721,-4.09972 3.46339,-0.69399 5.07807,-0.93176 7.24075,-1.06627 4.36659,-0.2716 7.09315,-0.0602 12.11774,0.9394 1.95781,0.38949 4.44238,0.93478 5.52126,1.21172 1.94293,0.49878 6.73363,2.12539 10.67335,3.62399 4.70216,1.78865 12.7055,3.73846 17.20269,4.19105 4.09658,0.41225 6.64718,0.23319 12.09677,-0.84925 4.49027,-0.89188 6.64255,-1.4766 10.68851,-2.90377 2.24946,-0.79345 3.4431,-1.13092 4.00026,-1.13092 0.53443,0 0.66699,0.0319 0.40539,0.0977 -0.21384,0.0537 -1.50324,0.48726 -2.86539,0.96338 -3.9946,1.39623 -6.12511,1.98977 -10.16287,2.83134 -4.34846,0.90632 -5.95473,1.14236 -8.6502,1.27106 -1.78267,0.0851 -2.05308,0.0848 -3.92153,-0.004 -2.68878,-0.1284 -4.67575,-0.41359 -8.84429,-1.26943 -4.03398,-0.82821 -8.9654,-2.27862 -12.98352,-3.81866 -5.85809,-2.24524 -8.6259,-3.04825 -14.51145,-4.20998 -3.32887,-0.65708 -5.68181,-0.94321 -7.7563,-0.94321 -4.223,0 -12.42212,1.53901 -18.00065,3.3788 -1.87404,0.61808 -4.70247,1.63606 -4.9654,1.78715 -0.32653,0.18762 -5.23946,1.86276 -7.28877,2.48522 -2.81159,0.854 -10.14953,2.33498 -12.67491,2.55813 -4.50766,0.39829 -8.33642,0.15008 -13.60434,-0.882 -5.03744,-0.98693 -9.50816,-2.28163 -14.17658,-4.10551 -7.8338,-3.06055 -16.74855,-5.11009 -22.22702,-5.11009 -2.38343,0 -5.03441,0.31016 -8.50168,0.99471 -5.66442,1.11836 -8.20966,1.86743 -15.69098,4.61801 -4.83144,1.77633 -8.05046,2.67522 -13.33735,3.72444 -3.79153,0.75244 -6.02678,0.99472 -9.17741,0.99472 -1.65687,0 -2.43193,-0.0435 -4.32919,-0.24272 z"
       id="path4598-4-0-3"
       inkscape:connector-curvature="0" />
    <g
       id="g4623-1-7-0"
       transform="translate(76.717896,255.81348)">
      <rect
         transform="matrix(0.98100328,-0.19399117,0.19399117,0.98100328,0,0)"
         y="127.99654"
         x="55.695564"
         height="53.772732"
         width="46.878792"
         id="rect2985-8-1-9-4"
         style="fill:#ffffff;fill-opacity:1;stroke:#000000;stroke-width:2.75379348;stroke-miterlimit:4;stroke-opacity:1;stroke-dasharray:none" />
      <rect
         transform="matrix(0.98100328,-0.19399117,0.19399117,0.98100328,0,0)"
         y="117.03519"
         x="61.210724"
         height="11.030304"
         width="35.848488"
         id="rect2987-9-3-0-5"
         style="fill:#ffffff;fill-opacity:1;stroke:#000000;stroke-width:2.75379348;stroke-miterlimit:4;stroke-opacity:1;stroke-dasharray:none" />
      <rect
         transform="matrix(0.98100328,-0.19399117,0.19399117,0.98100328,0,0)"
         y="106.07382"
         x="71.206947"
         height="11.030304"
         width="15.856061"
         id="rect2989-1-3-6-2"
         style="fill:#ffffff;fill-opacity:1;stroke:#000000;stroke-width:2.75379348;stroke-miterlimit:4;stroke-opacity:1;stroke-dasharray:none" />
      <rect
         transform="matrix(0.98100328,-0.19399117,-0.19399117,-0.98100328,0,0)"
         y="-192.71594"
         x="61.210724"
         height="11.030304"
         width="35.848488"
         id="rect2987-6-3-8-7-1"
         style="fill:#ffffff;fill-opacity:1;stroke:#000000;stroke-width:2.75379348;stroke-miterlimit:4;stroke-opacity:1;stroke-dasharray:none" />
      <rect
         transform="matrix(0.98100328,-0.19399117,-0.19399117,-0.98100328,0,0)"
         y="-203.65771"
         x="71.450684"
         height="11.030304"
         width="15.856061"
         id="rect2989-6-8-8-2-9"
         style="fill:#ffffff;fill-opacity:1;stroke:#000000;stroke-width:2.75379348;stroke-miterlimit:4;stroke-opacity:1;stroke-dasharray:none" />
    </g>
    <text
       xml:space="preserve"
       style="font-size:32.96421051px;font-style:normal;font-weight:normal;line-height:125%;letter-spacing:0px;word-spacing:0px;fill:#000000;fill-opacity:1;stroke:none;font-family:Sans"
       x="221.87085"
       y="390.04251"
       id="text3919-3-9-8-7"
       sodipodi:linespacing="125%"><tspan
         sodipodi:role="line"
         id="tspan3921-7-9-1-5"
         x="221.87085"
         y="390.04251">r i f f l e :) </tspan></text>
    <text
       xml:space="preserve"
       style="font-size:13.28786087px;font-style:normal;font-variant:normal;font-weight:normal;font-stretch:normal;text-align:start;line-height:125%;letter-spacing:0px;word-spacing:0px;writing-mode:lr-tb;text-anchor:start;fill:#000000;fill-opacity:1;stroke:none;font-family:Junction;-inkscape-font-specification:Junction"
       x="222.87503"
       y="410.0206"
       id="text3915-3-7-1-4"
       sodipodi:linespacing="125%"><tspan
         sodipodi:role="line"
         id="tspan3917-3-2-1-9"
         x="222.87503"
         y="410.0206">publiclab.org/wiki/riffle</tspan></text>
    <g
       transform="matrix(0,0.86863532,-0.86863532,0,22.248506,49.391045)"
       style="font-size:36.25624466px;font-style:normal;font-weight:normal;line-height:125%;letter-spacing:0px;word-spacing:0px;fill:#000000;fill-opacity:1;stroke:none;font-family:Sans"
       id="text3329">
      <path
         d="m 375.98419,-178.64094 3.73539,0 0,4.49662 -3.73539,0 0,-4.49662 m 0,-14.25111 3.73539,0 0,4.49662 -3.73539,0 0,-4.49662"
         id="path4373"
         inkscape:connector-curvature="0" />
      <path
         d="m 386.88939,-201.65516 2.83252,0 c 1.77032,2.78534 3.09216,5.51163 3.96553,8.1789 0.88515,2.6673 1.32773,5.31689 1.32774,7.94876 -10e-6,2.64369 -0.44259,5.30507 -1.32774,7.98416 -0.87337,2.67909 -2.19521,5.40539 -3.96553,8.1789 l -2.83252,0 c 1.56968,-2.7027 2.7381,-5.38769 3.50524,-8.05498 0.77894,-2.67908 1.16841,-5.38178 1.16842,-8.10808 -10e-6,-2.72629 -0.38948,-5.41718 -1.16842,-8.07268 -0.76714,-2.65547 -1.93556,-5.34046 -3.50524,-8.05498"
         id="path4375"
         inkscape:connector-curvature="0" />
    </g>
    <text
       xml:space="preserve"
       style="font-size:40px;font-style:normal;font-weight:normal;line-height:125%;letter-spacing:0px;word-spacing:0px;fill:#000000;fill-opacity:1;stroke:none;font-family:Sans"
       x="5.7142859"
       y="125.21642"
       id="text4396"
       sodipodi:linespacing="125%"
       transform="translate(139.85268,341.35617)"><tspan
         sodipodi:role="line"
         id="tspan4398"
         x="5.7142859"
         y="125.21642" /></text>
  </g>
</svg>
